<svg xmlns="http://www.w3.org/2000/svg" xmlns:svg="http://www.w3.org/2000/svg" version="1.1" id="svg1" viewBox="50.3 74.08 328.03 82.56">   <defs id="defs1"/>   <g id="layer1">     <g id="g7" transform="matrix(0.09989354,0,0,0.09989354,28.974022,51.553333)" style="fill:#000000"> 	<path d="M 213.46,225.5 H 400.6 v 125.08 h -62.95 v 576.34 h 62.95 v 125.04 H 213.46 Z" id="path1" style="fill:#fe7446;fill-opacity:1"/>  	<path d="M 986.8,779.98 H 792.65 L 748.93,912.04 H 615.98 V 863.08 L 818.89,299.85 h 147.8 l 203.77,563.23 v 48.96 H 1029.68 Z M 834.62,654.04 h 110.2 L 890.6,487.02 Z" id="path2" style="fill:#fe7446;fill-opacity:1"/>  	<path d="m 1235.46,299.84 h 268.46 c 131.2,0 197.68,72.6 197.68,194.15 0,79.58 -35,142.56 -93.61,177.53 l 112.83,191.55 v 48.96 H 1574.77 L 1448.84,688.15 h -62.95 v 223.88 h -150.43 z m 243.11,264.12 c 44.61,0 70.85,-13.99 70.85,-67.33 0,-51.59 -26.24,-65.58 -70.85,-65.58 h -92.68 v 132.91 z" id="path3" style="fill:#fe7446;fill-opacity:1"/>  	<path d="m 1792.86,299.84 h 150.43 v 240.51 h 54.19 l 135.58,-240.51 h 132.91 v 49.85 l -145.16,247.49 158.3,265.9 v 48.96 H 2136.55 L 2000.11,671.53 h -56.83 v 240.51 h -150.43 v -612.2 z" id="path4" style="fill:#fe7446;fill-opacity:1"/>  	<path d="m 2333.62,299.84 h 150.43 v 612.19 h -150.43 z" id="path5" style="fill:#fe7446;fill-opacity:1"/>  	<path d="m 2549.75,349.69 v -49.85 h 144.31 l 135.55,410.17 131.2,-410.17 h 142.56 v 49.85 l -202.02,562.34 h -148.69 z" id="path6" style="fill:#fe7446;fill-opacity:1"/>  	<path d="M 3497.26,1051.96 H 3310.12 V 926.92 h 62.99 V 350.58 h -62.99 V 225.5 h 187.14 z" id="path7" style="fill:#fe7446;fill-opacity:1"/>      </g>   </g> </svg>